<svg xmlns="http://www.w3.org/2000/svg" xmlns:xlink="http://www.w3.org/1999/xlink" style="margin:auto;background:#eeeeee;display:block;z-index:1;position:relative" width="1084" height="322" preserveAspectRatio="xMidYMid" viewBox="0 0 1084 322">
<defs>
  <pattern id="pid-0.25223282894252663" x="0" y="0" width="563.2" height="563.2" patternUnits="userSpaceOnUse">
    <g transform="scale(2.2)">


<defs><g id="id-0.742155956276425"><!--Generator: Adobe Illustrator 21.0.0, SVG Export Plug-In . SVG Version: 6.00 Build 0)--><style type="text/css">.st0{fill:#d1d1d1}.st1{fill:#454545}</style><path class="st0" d="M85.834,14.811c-0.423-0.009-0.937-0.015-1.533-0.015c-5.548,0-23.605,0.404-34.003,5.35 c-2.993-1.599-6.869-2.765-11.769-3.547c-4.904-0.781-10.823-1.178-17.59-1.178c-2.224,0-4.472,0.043-6.872,0.131 C10.385,15.688,7.5,18.681,7.5,22.366v49.941c0,3.574,2.793,6.562,6.36,6.803c1.362,0.091,3.144,0.14,5.206,0.196 c5.458,0.148,21.927,0.596,25.897,3.702c0.59,0.641,1.285,1.156,2.073,1.531c0.912,0.436,1.928,0.666,2.938,0.666 c0.009,0,0.046,0,0.055,0c0.899,0,1.778-0.175,2.609-0.519c0.719-0.298,1.372-0.711,1.949-1.231 c3.366-2.244,12.952-3.884,28.52-4.877c1.228-0.078,2.288-0.146,3.121-0.213c3.518-0.282,6.274-3.267,6.274-6.796v-49.94 C92.5,17.951,89.509,14.893,85.834,14.811z" data-fill="c1" style="fill: rgb(209, 209, 209);"></path><g><path class="st1" d="M50.027,81.796c-0.887,0-1.759-0.346-2.411-0.998c-4.242-4.242-20.598-4.686-28.458-4.899 c-2.028-0.055-3.779-0.103-5.069-0.189c-1.79-0.121-3.18-1.608-3.18-3.401V22.366c0-1.834,1.451-3.339,3.284-3.407 c2.357-0.087,4.564-0.129,6.746-0.129c6.588,0,12.326,0.382,17.054,1.136c7.388,1.177,12.191,3.25,14.686,6.337 c0.49,0.607,0.758,1.363,0.758,2.142v49.94c0,1.379-0.831,2.622-2.104,3.149C50.909,81.71,50.466,81.796,50.027,81.796z M17.727,69.037c0.512,0.015,1.053,0.03,1.616,0.045c10.139,0.275,20.363,0.809,27.275,3.406V29.88 c-2.029-1.537-8.099-4.231-25.679-4.231c-1.058,0-2.124,0.01-3.211,0.031L17.727,69.037z" data-fill="c2" style="fill: rgb(69, 69, 69);"></path></g><g><path class="st1" d="M49.973,81.796c-0.499,0-1.001-0.109-1.469-0.333c-1.185-0.566-1.94-1.763-1.94-3.076v-49.94 c0-0.904,0.359-1.771,0.998-2.41c7.453-7.453,31.911-7.83,36.739-7.83c0.566,0,1.055,0.005,1.456,0.014 c1.853,0.041,3.333,1.555,3.333,3.408v49.94c0,1.777-1.365,3.257-3.137,3.398c-0.809,0.065-1.864,0.132-3.085,0.21 c-6.978,0.445-25.513,1.627-30.753,5.861C51.497,81.538,50.738,81.796,49.973,81.796z M53.382,30.063v42.719 c7.187-2.64,17.963-3.7,28.891-4.4V25.04C70.983,25.229,58.108,26.97,53.382,30.063z" data-fill="c2" style="fill: rgb(69, 69, 69);"></path></g><g><path class="st1" d="M58.589,54.254c-1.663,0-3.119-1.219-3.368-2.914c-0.274-1.863,1.015-3.595,2.877-3.868l18.327-2.692 c1.861-0.273,3.595,1.015,3.868,2.878c0.273,1.863-1.015,3.595-2.878,3.868l-18.327,2.692 C58.92,54.242,58.753,54.254,58.589,54.254z" data-fill="c2" style="fill: rgb(69, 69, 69);"></path></g><g><path class="st1" d="M58.985,65.985c-1.659,0-3.113-1.212-3.367-2.902c-0.28-1.862,1.002-3.598,2.864-3.878l17.639-2.654 c1.86-0.281,3.598,1.002,3.878,2.864c0.28,1.861-1.002,3.598-2.864,3.878l-17.639,2.654C59.325,65.973,59.154,65.985,58.985,65.985 z" data-fill="c2" style="fill: rgb(69, 69, 69);"></path></g><g><path class="st1" d="M40.588,52.329c-0.165,0-0.332-0.012-0.499-0.037L21.762,49.6c-1.863-0.273-3.151-2.005-2.878-3.868 c0.274-1.863,2.008-3.149,3.868-2.878l18.327,2.692c1.863,0.273,3.151,2.005,2.878,3.868C43.708,51.11,42.252,52.329,40.588,52.329 z" data-fill="c2" style="fill: rgb(69, 69, 69);"></path></g><g><path class="st1" d="M40.588,63.929c-0.165,0-0.332-0.012-0.499-0.037L21.762,61.2c-1.863-0.274-3.151-2.005-2.878-3.868 c0.274-1.863,2.008-3.149,3.868-2.878l18.327,2.692c1.863,0.273,3.151,2.005,2.878,3.868 C43.708,62.709,42.252,63.929,40.588,63.929z" data-fill="c2" style="fill: rgb(69, 69, 69);"></path></g><g><path class="st1" d="M40.245,41.169c-0.169,0-0.339-0.013-0.512-0.038l-17.639-2.654c-1.862-0.28-3.144-2.016-2.864-3.878 c0.28-1.861,2.016-3.143,3.878-2.864l17.639,2.654c1.862,0.28,3.144,2.016,2.864,3.878C43.357,39.956,41.903,41.169,40.245,41.169z " data-fill="c2" style="fill: rgb(69, 69, 69);"></path></g><g><path class="st1" d="M59.352,42.499c-1.659,0-3.113-1.212-3.367-2.902c-0.28-1.862,1.002-3.598,2.864-3.878l17.639-2.654 c1.861-0.279,3.598,1.002,3.878,2.864c0.28,1.862-1.002,3.598-2.864,3.878l-17.639,2.654C59.691,42.487,59.52,42.499,59.352,42.499 z" data-fill="c2" style="fill: rgb(69, 69, 69);"></path></g><metadata xmlns:d="https://loading.io/stock/"><d:name>library</d:name><d:tags>book,knowledge,study,read,library,map</d:tags><d:license>free</d:license><d:slug>o10nkj</d:slug></metadata></g></defs>

<!-- Generator: Adobe Illustrator 21.0.0, SVG Export Plug-In . SVG Version: 6.00 Build 0)  -->


















<g data-idx="0" data-dup="" dx="-128" dy="-128" style="transform-origin: -43.697px -33.235px; animation: 1s linear 0s infinite normal forwards running beat-848325a3-6900-4764-864f-1d67c6fc8168;"><g transform="translate(-128,-128)"><polygon fill="#B3B4B4" points="95.261,98.953 73.345,96.2 74.22,90.577 94.461,93.724 " data-fill="c3" style="fill: rgb(179, 180, 180);"></polygon></g></g><g data-idx="0" data-dup="" dx="128" dy="-128" style="transform-origin: 212.303px -33.235px; animation: 1s linear 0s infinite normal forwards running beat-848325a3-6900-4764-864f-1d67c6fc8168;"><g transform="translate(128,-128)"><polygon fill="#B3B4B4" points="95.261,98.953 73.345,96.2 74.22,90.577 94.461,93.724 " data-fill="c3" style="fill: rgb(179, 180, 180);"></polygon></g></g><g data-idx="1" data-dup="" dx="-128" dy="-128" style="transform-origin: -89.899px 85.4716px; animation: 1s linear 0s infinite normal forwards running beat-848325a3-6900-4764-864f-1d67c6fc8168;"><g transform="translate(-128,-128)"><path fill="#B3B4B4" d="M38.105,224.49c-0.05,0-0.099,0-0.149-0.001c-2.943-0.039-5.694-1.221-7.748-3.33
	c-4.239-4.352-4.147-11.342,0.205-15.581c2.108-2.054,4.884-3.157,7.833-3.124c2.943,0.039,5.694,1.222,7.748,3.33
	c4.239,4.352,4.147,11.342-0.205,15.58C43.716,223.383,40.992,224.49,38.105,224.49z M38.098,207.494
	c-1.567,0-3.044,0.6-4.169,1.695c-2.361,2.3-2.411,6.092-0.111,8.453c1.114,1.144,2.607,1.785,4.204,1.806
	c1.609,0.014,3.106-0.581,4.25-1.695c2.361-2.3,2.411-6.092,0.112-8.453l0,0c-1.114-1.144-2.607-1.785-4.204-1.806
	C38.152,207.494,38.125,207.494,38.098,207.494z" data-fill="c3" style="fill: rgb(179, 180, 180);"></path></g></g><g data-idx="1" data-dup="" dx="128" dy="-128" style="transform-origin: 166.101px 85.4716px; animation: 1s linear 0s infinite normal forwards running beat-848325a3-6900-4764-864f-1d67c6fc8168;"><g transform="translate(128,-128)"><path fill="#B3B4B4" d="M38.105,224.49c-0.05,0-0.099,0-0.149-0.001c-2.943-0.039-5.694-1.221-7.748-3.33
	c-4.239-4.352-4.147-11.342,0.205-15.581c2.108-2.054,4.884-3.157,7.833-3.124c2.943,0.039,5.694,1.222,7.748,3.33
	c4.239,4.352,4.147,11.342-0.205,15.58C43.716,223.383,40.992,224.49,38.105,224.49z M38.098,207.494
	c-1.567,0-3.044,0.6-4.169,1.695c-2.361,2.3-2.411,6.092-0.111,8.453c1.114,1.144,2.607,1.785,4.204,1.806
	c1.609,0.014,3.106-0.581,4.25-1.695c2.361-2.3,2.411-6.092,0.112-8.453l0,0c-1.114-1.144-2.607-1.785-4.204-1.806
	C38.152,207.494,38.125,207.494,38.098,207.494z" data-fill="c3" style="fill: rgb(179, 180, 180);"></path></g></g><g data-idx="2" data-dup="" dx="-128" dy="-128" style="transform-origin: 106.49px -80.4995px; animation: 1s linear 0s infinite normal forwards running beat-848325a3-6900-4764-864f-1d67c6fc8168;"><g transform="translate(-128,-128)"><ellipse transform="matrix(0.7249 -0.6888 0.6888 0.7249 31.7828 174.5914)" fill="#B3B4B4" cx="234.5" cy="47.5" rx="4.4" ry="4.4" data-fill="c3" style="fill: rgb(179, 180, 180);"></ellipse></g></g><g data-idx="2" data-dup="" dx="128" dy="-128" style="transform-origin: 362.49px -80.4995px; animation: 1s linear 0s infinite normal forwards running beat-848325a3-6900-4764-864f-1d67c6fc8168;"><g transform="translate(128,-128)"><ellipse transform="matrix(0.7249 -0.6888 0.6888 0.7249 31.7828 174.5914)" fill="#B3B4B4" cx="234.5" cy="47.5" rx="4.4" ry="4.4" data-fill="c3" style="fill: rgb(179, 180, 180);"></ellipse></g></g><g data-idx="3" data-dup="t" dx="-128" dy="-128" style="transform-origin: 28.5333px 18.653px; animation: 1s linear 0s infinite normal forwards running beat-848325a3-6900-4764-864f-1d67c6fc8168;"><g transform="translate(-128,-128)"><path fill="#B3B4B4" d="M156.299,159.176l-1.714-5.053c3.929-1.333,6.042-5.614,4.709-9.543c-0.645-1.903-1.994-3.442-3.796-4.331
	c-1.803-0.89-3.844-1.024-5.747-0.378l-1.714-5.053c3.254-1.103,6.741-0.874,9.822,0.646c3.08,1.52,5.385,4.149,6.488,7.402
	C166.625,149.582,163.015,156.898,156.299,159.176z" data-fill="c3" style="fill: rgb(179, 180, 180);"></path></g></g><g data-idx="3" data-dup="t" dx="128" dy="-128" style="transform-origin: 284.533px 18.653px; animation: 1s linear 0s infinite normal forwards running beat-848325a3-6900-4764-864f-1d67c6fc8168;"><g transform="translate(128,-128)"><path fill="#B3B4B4" d="M156.299,159.176l-1.714-5.053c3.929-1.333,6.042-5.614,4.709-9.543c-0.645-1.903-1.994-3.442-3.796-4.331
	c-1.803-0.89-3.844-1.024-5.747-0.378l-1.714-5.053c3.254-1.103,6.741-0.874,9.822,0.646c3.08,1.52,5.385,4.149,6.488,7.402
	C166.625,149.582,163.015,156.898,156.299,159.176z" data-fill="c3" style="fill: rgb(179, 180, 180);"></path></g></g><g data-idx="4" data-dup="t" dx="-128" dy="-128" style="transform-origin: -25.5058px 21.4949px; animation: 1s linear 0s infinite normal forwards running beat-848325a3-6900-4764-864f-1d67c6fc8168;"><g transform="translate(-128,-128)"><ellipse transform="matrix(0.7249 -0.6888 0.6888 0.7249 -74.7837 111.7244)" fill="#B3B4B4" cx="102.5" cy="149.5" rx="4.4" ry="4.4" data-fill="c3" style="fill: rgb(179, 180, 180);"></ellipse></g></g><g data-idx="4" data-dup="t" dx="128" dy="-128" style="transform-origin: 230.494px 21.4949px; animation: 1s linear 0s infinite normal forwards running beat-848325a3-6900-4764-864f-1d67c6fc8168;"><g transform="translate(128,-128)"><ellipse transform="matrix(0.7249 -0.6888 0.6888 0.7249 -74.7837 111.7244)" fill="#B3B4B4" cx="102.5" cy="149.5" rx="4.4" ry="4.4" data-fill="c3" style="fill: rgb(179, 180, 180);"></ellipse></g></g><g data-idx="5" data-dup="" dx="-128" dy="-128" style="transform-origin: 114.171px 116.691px; animation: 1s linear 0s infinite normal forwards running beat-848325a3-6900-4764-864f-1d67c6fc8168;"><g transform="translate(-128,-128)"><polygon fill="#B3B4B4" points="231.486,249.178 247.065,235.877 252.857,238.786 235.18,253.505 " data-fill="c3" style="fill: rgb(179, 180, 180);"></polygon></g></g><g data-idx="5" data-dup="" dx="128" dy="-128" style="transform-origin: 370.171px 116.691px; animation: 1s linear 0s infinite normal forwards running beat-848325a3-6900-4764-864f-1d67c6fc8168;"><g transform="translate(128,-128)"><polygon fill="#B3B4B4" points="231.486,249.178 247.065,235.877 252.857,238.786 235.18,253.505 " data-fill="c3" style="fill: rgb(179, 180, 180);"></polygon></g></g><g data-idx="6" data-dup="" dx="-128" dy="-128" style="transform-origin: -20.197px -96.9315px; animation: 1s linear 0s infinite normal forwards running beat-848325a3-6900-4764-864f-1d67c6fc8168;"><g transform="translate(-128,-128)"><polygon fill="#B3B4B4" points="115.367,21.954 103.961,43.014 100.239,36.891 110.431,19.123 " data-fill="c3" style="fill: rgb(179, 180, 180);"></polygon></g></g><g data-idx="6" data-dup="" dx="128" dy="-128" style="transform-origin: 235.803px -96.9315px; animation: 1s linear 0s infinite normal forwards running beat-848325a3-6900-4764-864f-1d67c6fc8168;"><g transform="translate(128,-128)"><polygon fill="#B3B4B4" points="115.367,21.954 103.961,43.014 100.239,36.891 110.431,19.123 " data-fill="c3" style="fill: rgb(179, 180, 180);"></polygon></g></g><g data-idx="7" data-dup="" dx="-128" dy="-128" style="transform-origin: 94.1px -7.15031px; animation: 1s linear 0s infinite normal forwards running beat-848325a3-6900-4764-864f-1d67c6fc8168;"><g transform="translate(-128,-128)"><path fill="#B3B4B4" d="M222.104,130.57c-0.044,0-0.088,0-0.132-0.001c-2.596-0.034-5.024-1.077-6.835-2.937
	c-3.74-3.84-3.659-10.006,0.181-13.746c1.86-1.812,4.308-2.785,6.91-2.756c2.596,0.034,5.024,1.078,6.835,2.938
	c3.74,3.839,3.659,10.006-0.181,13.745C227.054,129.594,224.651,130.57,222.104,130.57z M222.099,115.576
	c-1.382,0-2.686,0.53-3.678,1.496c-2.083,2.029-2.127,5.374-0.098,7.458c0.983,1.009,2.3,1.575,3.708,1.594
	c1.42,0.013,2.74-0.512,3.749-1.495c2.083-2.029,2.127-5.374,0.098-7.457l0,0c-0.983-1.009-2.3-1.575-3.708-1.594
	C222.146,115.576,222.122,115.576,222.099,115.576z" data-fill="c3" style="fill: rgb(179, 180, 180);"></path></g></g><g data-idx="7" data-dup="" dx="128" dy="-128" style="transform-origin: 350.1px -7.15031px; animation: 1s linear 0s infinite normal forwards running beat-848325a3-6900-4764-864f-1d67c6fc8168;"><g transform="translate(128,-128)"><path fill="#B3B4B4" d="M222.104,130.57c-0.044,0-0.088,0-0.132-0.001c-2.596-0.034-5.024-1.077-6.835-2.937
	c-3.74-3.84-3.659-10.006,0.181-13.746c1.86-1.812,4.308-2.785,6.91-2.756c2.596,0.034,5.024,1.078,6.835,2.938
	c3.74,3.839,3.659,10.006-0.181,13.745C227.054,129.594,224.651,130.57,222.104,130.57z M222.099,115.576
	c-1.382,0-2.686,0.53-3.678,1.496c-2.083,2.029-2.127,5.374-0.098,7.458c0.983,1.009,2.3,1.575,3.708,1.594
	c1.42,0.013,2.74-0.512,3.749-1.495c2.083-2.029,2.127-5.374,0.098-7.457l0,0c-0.983-1.009-2.3-1.575-3.708-1.594
	C222.146,115.576,222.122,115.576,222.099,115.576z" data-fill="c3" style="fill: rgb(179, 180, 180);"></path></g></g><g data-idx="8" data-dup="" dx="-128" dy="-128" style="transform-origin: 46.6647px -119.158px; animation: 1s linear 0s infinite normal forwards running beat-848325a3-6900-4764-864f-1d67c6fc8168;"><g transform="translate(-128,-128)"><path fill="#B3B4B4" d="M184.509,10.022l-4.015,1.058c-0.822-3.122-4.032-4.993-7.154-4.17c-1.512,0.398-2.779,1.362-3.567,2.713
	c-0.788,1.352-1.003,2.929-0.603,4.44l-4.015,1.058c-0.681-2.585-0.315-5.28,1.031-7.589c1.346-2.309,3.511-3.956,6.096-4.637
	C177.619,1.489,183.103,4.687,184.509,10.022z" data-fill="c3" style="fill: rgb(179, 180, 180);"></path></g></g><g data-idx="8" data-dup="" dx="128" dy="-128" style="transform-origin: 302.665px -119.158px; animation: 1s linear 0s infinite normal forwards running beat-848325a3-6900-4764-864f-1d67c6fc8168;"><g transform="translate(128,-128)"><path fill="#B3B4B4" d="M184.509,10.022l-4.015,1.058c-0.822-3.122-4.032-4.993-7.154-4.17c-1.512,0.398-2.779,1.362-3.567,2.713
	c-0.788,1.352-1.003,2.929-0.603,4.44l-4.015,1.058c-0.681-2.585-0.315-5.28,1.031-7.589c1.346-2.309,3.511-3.956,6.096-4.637
	C177.619,1.489,183.103,4.687,184.509,10.022z" data-fill="c3" style="fill: rgb(179, 180, 180);"></path></g></g><g data-idx="9" data-dup="" dx="-128" dy="-128" style="transform-origin: -6.92356px 94.3997px; animation: 1s linear 0s infinite normal forwards running beat-848325a3-6900-4764-864f-1d67c6fc8168;"><g transform="translate(-128,-128)"><g transform="matrix(0.9912 0.1325 -0.1325 0.9912 30.542 -14.083) translate(121.067,222.398) scale(0.6786666666666666)"><g data-icon="" transform="scale(0.9)">  <use xlink:href="#id-0.742155956276425" x="-50" y="-50"></use>
</g></g></g></g><g data-idx="9" data-dup="" dx="128" dy="-128" style="transform-origin: 249.076px 94.3997px; animation: 1s linear 0s infinite normal forwards running beat-848325a3-6900-4764-864f-1d67c6fc8168;"><g transform="translate(128,-128)"><g transform="matrix(0.9912 0.1325 -0.1325 0.9912 30.542 -14.083) translate(121.067,222.398) scale(0.6786666666666666)"><g data-icon="" transform="scale(0.9)">  <use xlink:href="#id-0.742155956276425" x="-50" y="-50"></use>
</g></g></g></g><g data-idx="10" data-dup="" dx="-128" dy="-128" style="transform-origin: 33.2566px -52.8253px; animation: 1s linear 0s infinite normal forwards running beat-848325a3-6900-4764-864f-1d67c6fc8168;"><g transform="translate(-128,-128)"><g transform="matrix(-0.0456 0.999 -0.999 -0.0456 243.7065 -82.5047) translate(161.268,75.17099999999999) scale(0.47706666666666664)"><g data-icon="" transform="scale(0.9)">  <use xlink:href="#id-0.742155956276425" x="-50" y="-50"></use>
</g></g></g></g><g data-idx="10" data-dup="" dx="128" dy="-128" style="transform-origin: 289.257px -52.8253px; animation: 1s linear 0s infinite normal forwards running beat-848325a3-6900-4764-864f-1d67c6fc8168;"><g transform="translate(128,-128)"><g transform="matrix(-0.0456 0.999 -0.999 -0.0456 243.7065 -82.5047) translate(161.268,75.17099999999999) scale(0.47706666666666664)"><g data-icon="" transform="scale(0.9)">  <use xlink:href="#id-0.742155956276425" x="-50" y="-50"></use>
</g></g></g></g><g data-idx="11" data-dup="" dx="-128" dy="-128" style="transform-origin: 87.3087px 65.0822px; animation: 1s linear 0s infinite normal forwards running beat-848325a3-6900-4764-864f-1d67c6fc8168;"><g transform="translate(-128,-128)"><g transform="matrix(0.5905 -0.8071 0.8071 0.5905 -67.6584 252.8308) translate(215.293,193.0815) scale(0.5214666666666667)"><g data-icon="" transform="scale(0.9)">  <use xlink:href="#id-0.742155956276425" x="-50" y="-50"></use>
</g></g></g></g><g data-idx="11" data-dup="" dx="128" dy="-128" style="transform-origin: 343.309px 65.0822px; animation: 1s linear 0s infinite normal forwards running beat-848325a3-6900-4764-864f-1d67c6fc8168;"><g transform="translate(128,-128)"><g transform="matrix(0.5905 -0.8071 0.8071 0.5905 -67.6584 252.8308) translate(215.293,193.0815) scale(0.5214666666666667)"><g data-icon="" transform="scale(0.9)">  <use xlink:href="#id-0.742155956276425" x="-50" y="-50"></use>
</g></g></g></g><g data-idx="12" data-dup="" dx="-128" dy="-128" style="transform-origin: -78.815px -89.6962px; animation: 1s linear 0s infinite normal forwards running beat-848325a3-6900-4764-864f-1d67c6fc8168;"><g transform="translate(-128,-128)"><g transform="matrix(-0.4749 -0.8801 0.8801 -0.4749 38.8277 99.7848) translate(49.185,38.308499999999995) scale(0.5980444444444444)"><g data-icon="" transform="scale(0.9)">  <use xlink:href="#id-0.742155956276425" x="-50" y="-50"></use>
</g></g></g></g><g data-idx="12" data-dup="" dx="128" dy="-128" style="transform-origin: 177.185px -89.6962px; animation: 1s linear 0s infinite normal forwards running beat-848325a3-6900-4764-864f-1d67c6fc8168;"><g transform="translate(128,-128)"><g transform="matrix(-0.4749 -0.8801 0.8801 -0.4749 38.8277 99.7848) translate(49.185,38.308499999999995) scale(0.5980444444444444)"><g data-icon="" transform="scale(0.9)">  <use xlink:href="#id-0.742155956276425" x="-50" y="-50"></use>
</g></g></g></g><g data-idx="13" data-dup="t" dx="-128" dy="-128" style="transform-origin: -89.5668px 14.2465px; animation: 1s linear 0s infinite normal forwards running beat-848325a3-6900-4764-864f-1d67c6fc8168;"><g transform="translate(-128,-128)"><g transform="matrix(0.7381 -0.6747 0.6747 0.7381 -85.9069 63.1885) translate(38.434,142.243) scale(0.607688888888889)"><g data-icon="" transform="scale(0.9)">  <use xlink:href="#id-0.742155956276425" x="-50" y="-50"></use>
</g></g></g></g><g data-idx="13" data-dup="t" dx="128" dy="-128" style="transform-origin: 166.433px 14.2465px; animation: 1s linear 0s infinite normal forwards running beat-848325a3-6900-4764-864f-1d67c6fc8168;"><g transform="translate(128,-128)"><g transform="matrix(0.7381 -0.6747 0.6747 0.7381 -85.9069 63.1885) translate(38.434,142.243) scale(0.607688888888889)"><g data-icon="" transform="scale(0.9)">  <use xlink:href="#id-0.742155956276425" x="-50" y="-50"></use>
</g></g></g></g><g data-idx="0" data-dup="" dx="-128" dy="128" style="transform-origin: -43.697px 222.765px; animation: 1s linear 0s infinite normal forwards running beat-848325a3-6900-4764-864f-1d67c6fc8168;"><g transform="translate(-128,128)"><polygon fill="#B3B4B4" points="95.261,98.953 73.345,96.2 74.22,90.577 94.461,93.724 " data-fill="c3" style="fill: rgb(179, 180, 180);"></polygon></g></g><g data-idx="0" data-dup="" dx="128" dy="128" style="transform-origin: 212.303px 222.765px; animation: 1s linear 0s infinite normal forwards running beat-848325a3-6900-4764-864f-1d67c6fc8168;"><g transform="translate(128,128)"><polygon fill="#B3B4B4" points="95.261,98.953 73.345,96.2 74.22,90.577 94.461,93.724 " data-fill="c3" style="fill: rgb(179, 180, 180);"></polygon></g></g><g data-idx="1" data-dup="" dx="-128" dy="128" style="transform-origin: -89.899px 341.472px; animation: 1s linear 0s infinite normal forwards running beat-848325a3-6900-4764-864f-1d67c6fc8168;"><g transform="translate(-128,128)"><path fill="#B3B4B4" d="M38.105,224.49c-0.05,0-0.099,0-0.149-0.001c-2.943-0.039-5.694-1.221-7.748-3.33
	c-4.239-4.352-4.147-11.342,0.205-15.581c2.108-2.054,4.884-3.157,7.833-3.124c2.943,0.039,5.694,1.222,7.748,3.33
	c4.239,4.352,4.147,11.342-0.205,15.58C43.716,223.383,40.992,224.49,38.105,224.49z M38.098,207.494
	c-1.567,0-3.044,0.6-4.169,1.695c-2.361,2.3-2.411,6.092-0.111,8.453c1.114,1.144,2.607,1.785,4.204,1.806
	c1.609,0.014,3.106-0.581,4.25-1.695c2.361-2.3,2.411-6.092,0.112-8.453l0,0c-1.114-1.144-2.607-1.785-4.204-1.806
	C38.152,207.494,38.125,207.494,38.098,207.494z" data-fill="c3" style="fill: rgb(179, 180, 180);"></path></g></g><g data-idx="1" data-dup="" dx="128" dy="128" style="transform-origin: 166.101px 341.472px; animation: 1s linear 0s infinite normal forwards running beat-848325a3-6900-4764-864f-1d67c6fc8168;"><g transform="translate(128,128)"><path fill="#B3B4B4" d="M38.105,224.49c-0.05,0-0.099,0-0.149-0.001c-2.943-0.039-5.694-1.221-7.748-3.33
	c-4.239-4.352-4.147-11.342,0.205-15.581c2.108-2.054,4.884-3.157,7.833-3.124c2.943,0.039,5.694,1.222,7.748,3.33
	c4.239,4.352,4.147,11.342-0.205,15.58C43.716,223.383,40.992,224.49,38.105,224.49z M38.098,207.494
	c-1.567,0-3.044,0.6-4.169,1.695c-2.361,2.3-2.411,6.092-0.111,8.453c1.114,1.144,2.607,1.785,4.204,1.806
	c1.609,0.014,3.106-0.581,4.25-1.695c2.361-2.3,2.411-6.092,0.112-8.453l0,0c-1.114-1.144-2.607-1.785-4.204-1.806
	C38.152,207.494,38.125,207.494,38.098,207.494z" data-fill="c3" style="fill: rgb(179, 180, 180);"></path></g></g><g data-idx="2" data-dup="" dx="-128" dy="128" style="transform-origin: 106.49px 175.501px; animation: 1s linear 0s infinite normal forwards running beat-848325a3-6900-4764-864f-1d67c6fc8168;"><g transform="translate(-128,128)"><ellipse transform="matrix(0.7249 -0.6888 0.6888 0.7249 31.7828 174.5914)" fill="#B3B4B4" cx="234.5" cy="47.5" rx="4.4" ry="4.4" data-fill="c3" style="fill: rgb(179, 180, 180);"></ellipse></g></g><g data-idx="2" data-dup="" dx="128" dy="128" style="transform-origin: 362.49px 175.501px; animation: 1s linear 0s infinite normal forwards running beat-848325a3-6900-4764-864f-1d67c6fc8168;"><g transform="translate(128,128)"><ellipse transform="matrix(0.7249 -0.6888 0.6888 0.7249 31.7828 174.5914)" fill="#B3B4B4" cx="234.5" cy="47.5" rx="4.4" ry="4.4" data-fill="c3" style="fill: rgb(179, 180, 180);"></ellipse></g></g><g data-idx="3" data-dup="t" dx="-128" dy="128" style="transform-origin: 28.5333px 274.653px; animation: 1s linear 0s infinite normal forwards running beat-848325a3-6900-4764-864f-1d67c6fc8168;"><g transform="translate(-128,128)"><path fill="#B3B4B4" d="M156.299,159.176l-1.714-5.053c3.929-1.333,6.042-5.614,4.709-9.543c-0.645-1.903-1.994-3.442-3.796-4.331
	c-1.803-0.89-3.844-1.024-5.747-0.378l-1.714-5.053c3.254-1.103,6.741-0.874,9.822,0.646c3.08,1.52,5.385,4.149,6.488,7.402
	C166.625,149.582,163.015,156.898,156.299,159.176z" data-fill="c3" style="fill: rgb(179, 180, 180);"></path></g></g><g data-idx="3" data-dup="t" dx="128" dy="128" style="transform-origin: 284.533px 274.653px; animation: 1s linear 0s infinite normal forwards running beat-848325a3-6900-4764-864f-1d67c6fc8168;"><g transform="translate(128,128)"><path fill="#B3B4B4" d="M156.299,159.176l-1.714-5.053c3.929-1.333,6.042-5.614,4.709-9.543c-0.645-1.903-1.994-3.442-3.796-4.331
	c-1.803-0.89-3.844-1.024-5.747-0.378l-1.714-5.053c3.254-1.103,6.741-0.874,9.822,0.646c3.08,1.52,5.385,4.149,6.488,7.402
	C166.625,149.582,163.015,156.898,156.299,159.176z" data-fill="c3" style="fill: rgb(179, 180, 180);"></path></g></g><g data-idx="4" data-dup="t" dx="-128" dy="128" style="transform-origin: -25.5058px 277.495px; animation: 1s linear 0s infinite normal forwards running beat-848325a3-6900-4764-864f-1d67c6fc8168;"><g transform="translate(-128,128)"><ellipse transform="matrix(0.7249 -0.6888 0.6888 0.7249 -74.7837 111.7244)" fill="#B3B4B4" cx="102.5" cy="149.5" rx="4.4" ry="4.4" data-fill="c3" style="fill: rgb(179, 180, 180);"></ellipse></g></g><g data-idx="4" data-dup="t" dx="128" dy="128" style="transform-origin: 230.494px 277.495px; animation: 1s linear 0s infinite normal forwards running beat-848325a3-6900-4764-864f-1d67c6fc8168;"><g transform="translate(128,128)"><ellipse transform="matrix(0.7249 -0.6888 0.6888 0.7249 -74.7837 111.7244)" fill="#B3B4B4" cx="102.5" cy="149.5" rx="4.4" ry="4.4" data-fill="c3" style="fill: rgb(179, 180, 180);"></ellipse></g></g><g data-idx="5" data-dup="" dx="-128" dy="128" style="transform-origin: 114.171px 372.691px; animation: 1s linear 0s infinite normal forwards running beat-848325a3-6900-4764-864f-1d67c6fc8168;"><g transform="translate(-128,128)"><polygon fill="#B3B4B4" points="231.486,249.178 247.065,235.877 252.857,238.786 235.18,253.505 " data-fill="c3" style="fill: rgb(179, 180, 180);"></polygon></g></g><g data-idx="5" data-dup="" dx="128" dy="128" style="transform-origin: 370.171px 372.691px; animation: 1s linear 0s infinite normal forwards running beat-848325a3-6900-4764-864f-1d67c6fc8168;"><g transform="translate(128,128)"><polygon fill="#B3B4B4" points="231.486,249.178 247.065,235.877 252.857,238.786 235.18,253.505 " data-fill="c3" style="fill: rgb(179, 180, 180);"></polygon></g></g><g data-idx="6" data-dup="" dx="-128" dy="128" style="transform-origin: -20.197px 159.069px; animation: 1s linear 0s infinite normal forwards running beat-848325a3-6900-4764-864f-1d67c6fc8168;"><g transform="translate(-128,128)"><polygon fill="#B3B4B4" points="115.367,21.954 103.961,43.014 100.239,36.891 110.431,19.123 " data-fill="c3" style="fill: rgb(179, 180, 180);"></polygon></g></g><g data-idx="6" data-dup="" dx="128" dy="128" style="transform-origin: 235.803px 159.069px; animation: 1s linear 0s infinite normal forwards running beat-848325a3-6900-4764-864f-1d67c6fc8168;"><g transform="translate(128,128)"><polygon fill="#B3B4B4" points="115.367,21.954 103.961,43.014 100.239,36.891 110.431,19.123 " data-fill="c3" style="fill: rgb(179, 180, 180);"></polygon></g></g><g data-idx="7" data-dup="" dx="-128" dy="128" style="transform-origin: 94.1px 248.85px; animation: 1s linear 0s infinite normal forwards running beat-848325a3-6900-4764-864f-1d67c6fc8168;"><g transform="translate(-128,128)"><path fill="#B3B4B4" d="M222.104,130.57c-0.044,0-0.088,0-0.132-0.001c-2.596-0.034-5.024-1.077-6.835-2.937
	c-3.74-3.84-3.659-10.006,0.181-13.746c1.86-1.812,4.308-2.785,6.91-2.756c2.596,0.034,5.024,1.078,6.835,2.938
	c3.74,3.839,3.659,10.006-0.181,13.745C227.054,129.594,224.651,130.57,222.104,130.57z M222.099,115.576
	c-1.382,0-2.686,0.53-3.678,1.496c-2.083,2.029-2.127,5.374-0.098,7.458c0.983,1.009,2.3,1.575,3.708,1.594
	c1.42,0.013,2.74-0.512,3.749-1.495c2.083-2.029,2.127-5.374,0.098-7.457l0,0c-0.983-1.009-2.3-1.575-3.708-1.594
	C222.146,115.576,222.122,115.576,222.099,115.576z" data-fill="c3" style="fill: rgb(179, 180, 180);"></path></g></g><g data-idx="7" data-dup="" dx="128" dy="128" style="transform-origin: 350.1px 248.85px; animation: 1s linear 0s infinite normal forwards running beat-848325a3-6900-4764-864f-1d67c6fc8168;"><g transform="translate(128,128)"><path fill="#B3B4B4" d="M222.104,130.57c-0.044,0-0.088,0-0.132-0.001c-2.596-0.034-5.024-1.077-6.835-2.937
	c-3.74-3.84-3.659-10.006,0.181-13.746c1.86-1.812,4.308-2.785,6.91-2.756c2.596,0.034,5.024,1.078,6.835,2.938
	c3.74,3.839,3.659,10.006-0.181,13.745C227.054,129.594,224.651,130.57,222.104,130.57z M222.099,115.576
	c-1.382,0-2.686,0.53-3.678,1.496c-2.083,2.029-2.127,5.374-0.098,7.458c0.983,1.009,2.3,1.575,3.708,1.594
	c1.42,0.013,2.74-0.512,3.749-1.495c2.083-2.029,2.127-5.374,0.098-7.457l0,0c-0.983-1.009-2.3-1.575-3.708-1.594
	C222.146,115.576,222.122,115.576,222.099,115.576z" data-fill="c3" style="fill: rgb(179, 180, 180);"></path></g></g><g data-idx="8" data-dup="" dx="-128" dy="128" style="transform-origin: 46.6647px 136.842px; animation: 1s linear 0s infinite normal forwards running beat-848325a3-6900-4764-864f-1d67c6fc8168;"><g transform="translate(-128,128)"><path fill="#B3B4B4" d="M184.509,10.022l-4.015,1.058c-0.822-3.122-4.032-4.993-7.154-4.17c-1.512,0.398-2.779,1.362-3.567,2.713
	c-0.788,1.352-1.003,2.929-0.603,4.44l-4.015,1.058c-0.681-2.585-0.315-5.28,1.031-7.589c1.346-2.309,3.511-3.956,6.096-4.637
	C177.619,1.489,183.103,4.687,184.509,10.022z" data-fill="c3" style="fill: rgb(179, 180, 180);"></path></g></g><g data-idx="8" data-dup="" dx="128" dy="128" style="transform-origin: 302.665px 136.842px; animation: 1s linear 0s infinite normal forwards running beat-848325a3-6900-4764-864f-1d67c6fc8168;"><g transform="translate(128,128)"><path fill="#B3B4B4" d="M184.509,10.022l-4.015,1.058c-0.822-3.122-4.032-4.993-7.154-4.17c-1.512,0.398-2.779,1.362-3.567,2.713
	c-0.788,1.352-1.003,2.929-0.603,4.44l-4.015,1.058c-0.681-2.585-0.315-5.28,1.031-7.589c1.346-2.309,3.511-3.956,6.096-4.637
	C177.619,1.489,183.103,4.687,184.509,10.022z" data-fill="c3" style="fill: rgb(179, 180, 180);"></path></g></g><g data-idx="9" data-dup="" dx="-128" dy="128" style="transform-origin: -6.92356px 350.4px; animation: 1s linear 0s infinite normal forwards running beat-848325a3-6900-4764-864f-1d67c6fc8168;"><g transform="translate(-128,128)"><g transform="matrix(0.9912 0.1325 -0.1325 0.9912 30.542 -14.083) translate(121.067,222.398) scale(0.6786666666666666)"><g data-icon="" transform="scale(0.9)">  <use xlink:href="#id-0.742155956276425" x="-50" y="-50"></use>
</g></g></g></g><g data-idx="9" data-dup="" dx="128" dy="128" style="transform-origin: 249.076px 350.4px; animation: 1s linear 0s infinite normal forwards running beat-848325a3-6900-4764-864f-1d67c6fc8168;"><g transform="translate(128,128)"><g transform="matrix(0.9912 0.1325 -0.1325 0.9912 30.542 -14.083) translate(121.067,222.398) scale(0.6786666666666666)"><g data-icon="" transform="scale(0.9)">  <use xlink:href="#id-0.742155956276425" x="-50" y="-50"></use>
</g></g></g></g><g data-idx="10" data-dup="" dx="-128" dy="128" style="transform-origin: 33.2566px 203.175px; animation: 1s linear 0s infinite normal forwards running beat-848325a3-6900-4764-864f-1d67c6fc8168;"><g transform="translate(-128,128)"><g transform="matrix(-0.0456 0.999 -0.999 -0.0456 243.7065 -82.5047) translate(161.268,75.17099999999999) scale(0.47706666666666664)"><g data-icon="" transform="scale(0.9)">  <use xlink:href="#id-0.742155956276425" x="-50" y="-50"></use>
</g></g></g></g><g data-idx="10" data-dup="" dx="128" dy="128" style="transform-origin: 289.257px 203.175px; animation: 1s linear 0s infinite normal forwards running beat-848325a3-6900-4764-864f-1d67c6fc8168;"><g transform="translate(128,128)"><g transform="matrix(-0.0456 0.999 -0.999 -0.0456 243.7065 -82.5047) translate(161.268,75.17099999999999) scale(0.47706666666666664)"><g data-icon="" transform="scale(0.9)">  <use xlink:href="#id-0.742155956276425" x="-50" y="-50"></use>
</g></g></g></g><g data-idx="11" data-dup="" dx="-128" dy="128" style="transform-origin: 87.3087px 321.082px; animation: 1s linear 0s infinite normal forwards running beat-848325a3-6900-4764-864f-1d67c6fc8168;"><g transform="translate(-128,128)"><g transform="matrix(0.5905 -0.8071 0.8071 0.5905 -67.6584 252.8308) translate(215.293,193.0815) scale(0.5214666666666667)"><g data-icon="" transform="scale(0.9)">  <use xlink:href="#id-0.742155956276425" x="-50" y="-50"></use>
</g></g></g></g><g data-idx="11" data-dup="" dx="128" dy="128" style="transform-origin: 343.309px 321.082px; animation: 1s linear 0s infinite normal forwards running beat-848325a3-6900-4764-864f-1d67c6fc8168;"><g transform="translate(128,128)"><g transform="matrix(0.5905 -0.8071 0.8071 0.5905 -67.6584 252.8308) translate(215.293,193.0815) scale(0.5214666666666667)"><g data-icon="" transform="scale(0.9)">  <use xlink:href="#id-0.742155956276425" x="-50" y="-50"></use>
</g></g></g></g><g data-idx="12" data-dup="" dx="-128" dy="128" style="transform-origin: -78.815px 166.304px; animation: 1s linear 0s infinite normal forwards running beat-848325a3-6900-4764-864f-1d67c6fc8168;"><g transform="translate(-128,128)"><g transform="matrix(-0.4749 -0.8801 0.8801 -0.4749 38.8277 99.7848) translate(49.185,38.308499999999995) scale(0.5980444444444444)"><g data-icon="" transform="scale(0.9)">  <use xlink:href="#id-0.742155956276425" x="-50" y="-50"></use>
</g></g></g></g><g data-idx="12" data-dup="" dx="128" dy="128" style="transform-origin: 177.185px 166.304px; animation: 1s linear 0s infinite normal forwards running beat-848325a3-6900-4764-864f-1d67c6fc8168;"><g transform="translate(128,128)"><g transform="matrix(-0.4749 -0.8801 0.8801 -0.4749 38.8277 99.7848) translate(49.185,38.308499999999995) scale(0.5980444444444444)"><g data-icon="" transform="scale(0.9)">  <use xlink:href="#id-0.742155956276425" x="-50" y="-50"></use>
</g></g></g></g><g data-idx="13" data-dup="t" dx="-128" dy="128" style="transform-origin: -89.5668px 270.246px; animation: 1s linear 0s infinite normal forwards running beat-848325a3-6900-4764-864f-1d67c6fc8168;"><g transform="translate(-128,128)"><g transform="matrix(0.7381 -0.6747 0.6747 0.7381 -85.9069 63.1885) translate(38.434,142.243) scale(0.607688888888889)"><g data-icon="" transform="scale(0.9)">  <use xlink:href="#id-0.742155956276425" x="-50" y="-50"></use>
</g></g></g></g><g data-idx="13" data-dup="t" dx="128" dy="128" style="transform-origin: 166.433px 270.246px; animation: 1s linear 0s infinite normal forwards running beat-848325a3-6900-4764-864f-1d67c6fc8168;"><g transform="translate(128,128)"><g transform="matrix(0.7381 -0.6747 0.6747 0.7381 -85.9069 63.1885) translate(38.434,142.243) scale(0.607688888888889)"><g data-icon="" transform="scale(0.9)">  <use xlink:href="#id-0.742155956276425" x="-50" y="-50"></use>
</g></g></g></g></g>
  </pattern>
</defs>
<rect x="0" y="0" width="1084" height="322" fill="url(#pid-0.25223282894252663)"></rect>
</svg>